<svg xmlns="http://www.w3.org/2000/svg" viewBox="0 0 512 512" width="512" height="512" role="img" aria-label="Lambari Pesca">
  <defs>
    <linearGradient id="bgm" x1="0" y1="0" x2="0" y2="1">
      <stop offset="0" stop-color="#0f766e"/>
      <stop offset="1" stop-color="#065f46"/>
    </linearGradient>
  </defs>
  <!-- full-bleed para máscara -->
  <rect x="0" y="0" width="512" height="512" fill="url(#bgm)"/>
  <!-- conteúdo dentro da zona segura (~70%) -->
  <g transform="translate(256 256) scale(0.62) translate(-256 -256)">
    <path d="M150 256c40-58 120-92 180-58 30 17 46 41 52 58-6 17-22 41-52 58-60 34-140 0-180-58z" fill="#ffffff"/>
    <path d="M150 256c-22-20-44-26-66-24 12 14 16 26 12 40 22 2 38-4 54-16z" fill="#a7f3d0"/>
    <circle cx="338" cy="238" r="14" fill="#065f46"/>
    <g fill="none" stroke="#fbbf24" stroke-width="14" stroke-linecap="round">
      <path d="M256 120v70a40 40 0 1 1-40 40"/>
      <path d="M256 120l-16 18M256 120l16 18"/>
    </g>
  </g>
</svg>
